<?xml version="1.0" encoding="UTF-8" standalone="no"?>
<svg
   viewBox="0 0 24 24"
   fill="currentColor"
   version="1.1"
   id="svg1"
   sodipodi:docname="arrow-down.svg"
   inkscape:version="1.4 (e7c3feb100, 2024-10-09)"
   xmlns:inkscape="http://www.inkscape.org/namespaces/inkscape"
   xmlns:sodipodi="http://sodipodi.sourceforge.net/DTD/sodipodi-0.dtd"
   xmlns="http://www.w3.org/2000/svg"
   xmlns:svg="http://www.w3.org/2000/svg">
  <defs
     id="defs1" />
  <sodipodi:namedview
     id="namedview1"
     pagecolor="#ffffff"
     bordercolor="#000000"
     borderopacity="0.25"
     inkscape:showpageshadow="2"
     inkscape:pageopacity="0.0"
     inkscape:pagecheckerboard="0"
     inkscape:deskcolor="#d1d1d1"
     inkscape:zoom="14.75"
     inkscape:cx="12"
     inkscape:cy="12.033898"
     inkscape:window-width="1261"
     inkscape:window-height="1032"
     inkscape:window-x="655"
     inkscape:window-y="0"
     inkscape:window-maximized="1"
     inkscape:current-layer="svg1" />
  <path
     d="M13.0001 16.1716L18.3641 10.8076L19.7783 12.2218L12.0001 20L4.22192 12.2218L5.63614 10.8076L11.0001 16.1716V4H13.0001V16.1716Z"
     id="path1" />
  <path
     style="fill:#dd3333;stroke:#dd3333;stroke-width:0.256239"
     d="M 8.1361932,16.102295 4.2726833,12.238339 4.9491052,11.559369 5.6255269,10.8804 8.2707084,13.524946 c 1.4548498,1.4545 2.6679196,2.644546 2.6957116,2.644546 0.02779,0 0.05053,-2.730509 0.05053,-6.067797 V 4.0338983 H 12 12.983051 v 6.0677967 c 0,3.337288 0.02274,6.067797 0.05053,6.067797 0.02779,0 1.240862,-1.190046 2.695712,-2.644546 l 2.645181,-2.644546 0.676496,0.679044 0.676496,0.679044 -3.863881,3.863881 -3.863881,3.863882 z"
     id="path2" />
</svg>
