<?xml version="1.0" encoding="UTF-8" standalone="no"?>
<svg
   viewBox="0 0 24 24"
   fill="currentColor"
   version="1.1"
   id="svg1"
   sodipodi:docname="book-open.svg"
   inkscape:version="1.4.1 (93de688d07, 2025-03-30)"
   xmlns:inkscape="http://www.inkscape.org/namespaces/inkscape"
   xmlns:sodipodi="http://sodipodi.sourceforge.net/DTD/sodipodi-0.dtd"
   xmlns="http://www.w3.org/2000/svg"
   xmlns:svg="http://www.w3.org/2000/svg">
  <defs
     id="defs1" />
  <sodipodi:namedview
     id="namedview1"
     pagecolor="#ffffff"
     bordercolor="#000000"
     borderopacity="0.25"
     inkscape:showpageshadow="2"
     inkscape:pageopacity="0.0"
     inkscape:pagecheckerboard="0"
     inkscape:deskcolor="#d1d1d1"
     inkscape:zoom="16.333333"
     inkscape:cx="13.714286"
     inkscape:cy="10.010204"
     inkscape:window-width="1916"
     inkscape:window-height="1032"
     inkscape:window-x="0"
     inkscape:window-y="0"
     inkscape:window-maximized="1"
     inkscape:current-layer="svg1" />
  <path
     style="fill:#dd3333;stroke:#dd3333;stroke-width:0.462799"
     d="m 11.020408,21.985643 v -0.97354 L 6.8668354,20.975439 2.7132626,20.938776 2.3974476,20.641921 2.0816327,20.345066 V 12 3.6549341 l 0.3162118,-0.2968548 0.3162119,-0.2968548 3.5103187,0.00234 c 3.2760872,0.00218 3.5522704,0.01942 4.1390279,0.2583701 0.34579,0.1408189 0.852538,0.4359086 1.126107,0.655755 l 0.497399,0.3997205 0.605683,-0.4446121 c 1.1434,-0.8393329 1.270609,-0.8605967 5.183033,-0.8663802 l 3.510319,-0.00519 0.316211,0.2968548 0.316212,0.2968548 V 12 20.345066 l -0.315815,0.296855 -0.315814,0.296855 -4.153574,0.03666 -4.153572,0.03666 v 0.97354 0.973541 H 12 11.020408 Z m 0,-9.294065 V 6.3423387 L 10.744898,5.9375303 C 10.12681,5.0293713 10.107047,5.0245329 6.8484856,4.9836104 L 3.9183674,4.9468125 v 7.0470025 7.047001 h 3.5510204 3.5510202 z m 9.061225,-0.697763 V 4.9468125 l -2.930119,0.036798 c -3.258561,0.040922 -3.278324,0.045761 -3.896412,0.9539199 l -0.27551,0.4048084 v 6.3492392 6.349238 h 3.55102 3.551021 z"
     id="path2" />
</svg>
