<?xml version="1.0" encoding="UTF-8" standalone="no"?>
<svg
   viewBox="0 0 24 24"
   fill="currentColor"
   version="1.1"
   id="svg1"
   sodipodi:docname="delete-bin.svg"
   inkscape:version="1.4.1 (93de688d07, 2025-03-30)"
   xmlns:inkscape="http://www.inkscape.org/namespaces/inkscape"
   xmlns:sodipodi="http://sodipodi.sourceforge.net/DTD/sodipodi-0.dtd"
   xmlns="http://www.w3.org/2000/svg"
   xmlns:svg="http://www.w3.org/2000/svg">
  <defs
     id="defs1" />
  <sodipodi:namedview
     id="namedview1"
     pagecolor="#ffffff"
     bordercolor="#000000"
     borderopacity="0.25"
     inkscape:showpageshadow="2"
     inkscape:pageopacity="0.0"
     inkscape:pagecheckerboard="0"
     inkscape:deskcolor="#d1d1d1"
     inkscape:zoom="5.7747054"
     inkscape:cx="8.0523588"
     inkscape:cy="13.940105"
     inkscape:window-width="636"
     inkscape:window-height="1032"
     inkscape:window-x="640"
     inkscape:window-y="0"
     inkscape:window-maximized="1"
     inkscape:current-layer="svg1" />
  <path
     style="fill:#dd3333;stroke:#dd3333;stroke-width:0.654497"
     d="M 4.428179,21.633757 C 4.1901151,21.395692 4.1560562,20.517904 4.1560562,14.620412 V 7.8791899 H 3.1170421 2.0780281 V 7.0133448 6.1474998 H 4.5889787 7.0999293 V 4.4910099 c 0,-0.9110696 0.080668,-1.8072192 0.1792618,-1.9914437 0.1701493,-0.317927 0.4073212,-0.3349536 4.6657439,-0.3349536 5.369132,0 5.025628,-0.1624223 5.025628,2.3763127 v 1.6065745 h 2.51095 2.510951 v 0.865845 0.8658451 H 20.95345 19.914436 v 6.7267521 c 0,6.296846 -0.02024,6.745069 -0.316681,7.013345 -0.28412,0.257124 -1.066299,0.286592 -7.607067,0.286592 -6.396732,0 -7.3237431,-0.03336 -7.562509,-0.272122 z M 18.009577,13.940105 V 7.8791899 H 11.948662 5.8877463 v 6.0609151 6.060915 h 6.0609157 6.060915 z M 15.065704,5.0219012 V 3.8963027 H 11.948662 8.8316194 v 1.0101525 c 0,0.555584 0.051951,1.0621033 0.1154461,1.1255985 0.063495,0.063495 1.4661645,0.1154461 3.1170425,0.1154461 h 3.001596 z"
     id="path2" />
  <path
     style="fill:#dd3333;stroke:#dd3333;stroke-width:0.654497"
     d="m 9.0047884,13.940105 v -2.943873 h 0.9524295 0.9524291 v 2.943873 2.943873 H 9.9572179 9.0047884 Z"
     id="path3" />
  <path
     style="fill:#dd3333;stroke:#dd3333;stroke-width:0.654497"
     d="m 13.160845,13.940105 v -2.943873 h 0.865845 0.865845 v 2.943873 2.943873 H 14.02669 13.160845 Z"
     id="path4" />
</svg>
