<?xml version="1.0" encoding="UTF-8" standalone="no"?>
<svg
   viewBox="0 0 24 24"
   fill="currentColor"
   version="1.1"
   id="svg1"
   sodipodi:docname="github.svg"
   inkscape:version="1.4.1 (93de688d07, 2025-03-30)"
   xmlns:inkscape="http://www.inkscape.org/namespaces/inkscape"
   xmlns:sodipodi="http://sodipodi.sourceforge.net/DTD/sodipodi-0.dtd"
   xmlns="http://www.w3.org/2000/svg"
   xmlns:svg="http://www.w3.org/2000/svg">
  <defs
     id="defs1" />
  <sodipodi:namedview
     id="namedview1"
     pagecolor="#ffffff"
     bordercolor="#000000"
     borderopacity="0.25"
     inkscape:showpageshadow="2"
     inkscape:pageopacity="0.0"
     inkscape:pagecheckerboard="0"
     inkscape:deskcolor="#d1d1d1"
     inkscape:zoom="11.549411"
     inkscape:cx="4.6755632"
     inkscape:cy="5.324947"
     inkscape:window-width="1399"
     inkscape:window-height="1032"
     inkscape:window-x="517"
     inkscape:window-y="0"
     inkscape:window-maximized="1"
     inkscape:current-layer="svg1" />
  <path
     style="fill:#dd3333;stroke:#dd3333;stroke-width:0.327249"
     d="M 8.4852814,21.307718 C 7.955914,21.108949 6.9013636,20.552461 6.3671832,20.189993 5.6789926,19.723022 4.5113583,18.59261 3.9886125,17.887248 3.0826649,16.664815 2.3701942,14.947697 2.1595933,13.479147 2.0016653,12.377892 2.0955724,10.579173 2.3645735,9.5529082 3.3853776,5.6584436 6.5930714,2.7581765 10.537033,2.1637012 c 1.066368,-0.1607342 1.836609,-0.1617733 2.883925,-0.00389 2.083052,0.3140198 3.873467,1.188981 5.39679,2.6373669 4.102465,3.9006521 4.17868,10.2469419 0.171245,14.2594069 -1.101446,1.102828 -2.955529,2.231237 -3.867015,2.353493 -0.55147,0.07397 -0.575781,-0.0093 -0.575781,-1.972691 0,-1.792147 -0.08726,-2.364494 -0.423857,-2.780176 l -0.162507,-0.200687 0.777523,-0.15708 c 1.061175,-0.214384 1.782467,-0.559095 2.3976,-1.145834 0.893802,-0.852542 1.260079,-1.870144 1.262674,-3.507994 0.0018,-1.155649 -0.134211,-1.6724702 -0.640257,-2.4323411 -0.230454,-0.3460463 -0.30397,-0.5313214 -0.257672,-0.6493838 0.102813,-0.2621736 0.0741,-1.6893394 -0.04165,-2.0700528 l -0.105297,-0.346338 -0.515787,1.84e-4 c -0.428033,1.526e-4 -0.640999,0.061119 -1.251754,0.358346 C 15.18043,6.7030194 14.775814,6.9205461 14.686065,6.989423 14.543427,7.0988892 14.45623,7.0978007 13.993389,6.980773 13.254615,6.7939818 10.810849,6.7953318 10.06772,6.982943 9.5323043,7.1181146 9.5268032,7.1176101 9.2133081,6.9045846 8.6534451,6.5241479 7.7687298,6.1722058 7.2551882,6.1256395 6.7708068,6.0817174 6.7558534,6.0868789 6.6616746,6.3305022 6.4634945,6.8431577 6.3883536,7.6562797 6.4868767,8.2220414 6.581993,8.7682397 6.5818871,8.7687488 6.2796494,9.2178723 5.8365805,9.8762698 5.6276896,10.638357 5.6294962,11.589798 c 0.005,2.635183 1.2384114,4.232873 3.6350457,4.708641 0.4047826,0.08036 0.7519641,0.157069 0.7715141,0.170474 0.01955,0.01341 -0.02932,0.09605 -0.1086025,0.183656 -0.079282,0.0876 -0.2158076,0.370099 -0.3033907,0.627765 -0.1432863,0.421541 -0.1931333,0.47871 -0.4974888,0.570562 -1.0539106,0.318062 -1.6222978,0.05789 -2.6695591,-1.221956 -0.465256,-0.568585 -0.7730374,-0.739966 -1.3296005,-0.74036 -0.5987893,-4.24e-4 -0.7030483,0.192846 -0.2775657,0.514538 0.52731,0.398679 0.8514007,0.798691 1.170754,1.445012 0.3600775,0.728741 0.817606,1.172213 1.3684944,1.326452 0.2090694,0.05854 0.7280608,0.09106 1.1995571,0.07518 l 0.8310538,-0.028 0.039994,0.865845 c 0.047623,1.031015 -0.033692,1.290675 -0.4122232,1.316335 -0.1425333,0.0097 -0.3955219,-0.03364 -0.5621971,-0.09622 z"
     id="path2" />
</svg>
