<?xml version="1.0" encoding="UTF-8" standalone="no"?>
<svg
   viewBox="0 0 24 24"
   fill="currentColor"
   version="1.1"
   id="svg1"
   sodipodi:docname="linkedin-nb.svg"
   inkscape:version="1.4.1 (93de688d07, 2025-03-30)"
   xmlns:inkscape="http://www.inkscape.org/namespaces/inkscape"
   xmlns:sodipodi="http://sodipodi.sourceforge.net/DTD/sodipodi-0.dtd"
   xmlns="http://www.w3.org/2000/svg"
   xmlns:svg="http://www.w3.org/2000/svg">
  <defs
     id="defs1" />
  <sodipodi:namedview
     id="namedview1"
     pagecolor="#ffffff"
     bordercolor="#000000"
     borderopacity="0.25"
     inkscape:showpageshadow="2"
     inkscape:pageopacity="0.0"
     inkscape:pagecheckerboard="0"
     inkscape:deskcolor="#d1d1d1"
     inkscape:zoom="10.166667"
     inkscape:cx="12"
     inkscape:cy="12.04918"
     inkscape:window-width="1916"
     inkscape:window-height="1032"
     inkscape:window-x="0"
     inkscape:window-y="0"
     inkscape:window-maximized="1"
     inkscape:current-layer="svg1" />
  <path
     style="fill:#dd3333;stroke:#dd3333;stroke-width:0.371757"
     d="M 4.1311475,20.910086 C 3.6620652,20.794602 3.406594,20.62222 3.2469197,20.313445 3.1179756,20.064093 3.0983607,18.966433 3.0983607,12 c 0,-8.8532304 -0.03017,-8.4236524 0.616419,-8.7770236 C 4.0113978,3.0608698 4.5686607,3.0491803 12,3.0491803 c 7.431339,0 7.988603,0.011689 8.28522,0.1737961 0.174904,0.095588 0.396215,0.3168993 0.491803,0.4918033 C 20.93913,4.0113978 20.95082,4.5686607 20.95082,12 c 0,7.431339 -0.01169,7.988603 -0.173797,8.28522 -0.382317,0.699555 0.06784,0.663798 -8.580302,0.681556 -4.2737702,0.0088 -7.9032784,-0.01674 -8.0655735,-0.05669 z M 8.4098361,14.016393 V 9.6885246 H 7.0327869 5.6557377 v 4.3278684 4.327869 h 1.3770492 1.3770492 z m 4.3454209,1.647541 c 0.02932,-2.484375 0.04625,-2.705496 0.231696,-3.02459 0.281484,-0.48436 0.756161,-0.708704 1.399049,-0.661226 0.611966,0.04519 0.923145,0.28708 1.091282,0.848275 0.07244,0.241789 0.11288,1.297628 0.11288,2.947314 v 2.570555 h 1.383069 1.383068 l -0.0316,-3.270492 C 18.294872,11.985695 18.281225,11.774152 18.080026,11.281074 17.766715,10.513242 17.43091,10.130931 16.795899,9.8191095 16.288904,9.5701499 16.12636,9.5409836 15.245902,9.5409836 c -1.14142,0 -1.628041,0.1717844 -2.237705,0.7899424 l -0.368853,0.373992 V 10.196721 9.6885246 H 11.311475 9.9836066 v 4.3278684 4.327869 H 11.353618 12.72363 Z M 7.8206724,8.3852459 C 8.3791951,8.0051187 8.557377,7.6780083 8.557377,7.0327869 8.557377,6.3875655 8.3791951,6.0604551 7.8206724,5.6803279 7.182213,5.2457963 6.1194771,5.4518592 5.7004047,6.0914446 5.3325524,6.6528581 5.343805,7.486701 5.7261443,7.9988028 6.1804539,8.6073014 7.2141752,8.7980243 7.8206724,8.3852459 Z"
     id="path2" />
</svg>
