<?xml version="1.0" encoding="UTF-8" standalone="no"?>
<svg
   viewBox="0 0 24 24"
   fill="currentColor"
   version="1.1"
   id="svg1"
   sodipodi:docname="save.svg"
   inkscape:version="1.4.2 (ebf0e940d0, 2025-05-08)"
   xmlns:inkscape="http://www.inkscape.org/namespaces/inkscape"
   xmlns:sodipodi="http://sodipodi.sourceforge.net/DTD/sodipodi-0.dtd"
   xmlns="http://www.w3.org/2000/svg"
   xmlns:svg="http://www.w3.org/2000/svg">
  <defs
     id="defs1" />
  <sodipodi:namedview
     id="namedview1"
     pagecolor="#ffffff"
     bordercolor="#000000"
     borderopacity="0.25"
     inkscape:showpageshadow="2"
     inkscape:pageopacity="0.0"
     inkscape:pagecheckerboard="0"
     inkscape:deskcolor="#d1d1d1"
     inkscape:zoom="5.5"
     inkscape:cx="16.090909"
     inkscape:cy="19.545455"
     inkscape:window-width="1330"
     inkscape:window-height="1032"
     inkscape:window-x="586"
     inkscape:window-y="0"
     inkscape:window-maximized="1"
     inkscape:current-layer="svg1" />
  <path
     style="fill:#dd3333;stroke:#dd3333;stroke-width:0.687187"
     d="M 3.7700827,20.814384 C 3.5436283,20.721841 3.2752699,20.427615 3.1737307,20.160547 3.0560503,19.851024 3.007568,16.786203 3.0400116,11.70747 3.0870587,4.3427109 3.1154561,3.7154214 3.415392,3.4154406 3.712924,3.1178639 4.2867777,3.0867003 10.324483,3.0402361 l 6.584608,-0.050673 2.052117,2.0601995 2.052117,2.0601994 -0.05212,6.575086 c -0.04777,6.027435 -0.07915,6.602112 -0.37665,6.899564 -0.300533,0.300481 -0.91908,0.327199 -8.363636,0.361255 C 7.6163,20.966927 4.0059136,20.910757 3.7700807,20.814384 Z M 7,16 v -3 h 5 5 v 3 3 h 1 1 V 13.322457 7.6449149 L 17.686369,6.3224575 16.372737,5 H 10.686369 5 v 7 7 h 1 1 z m 8,1 V 15 H 12 9 v 2 2 h 3 3 z"
     id="path2" />
</svg>
